HIERARCHY
ROOT mixamorig:Hips
{
	OFFSET 0.000000 104.274902 0.000000
	CHANNELS 6 Xposition Yposition Zposition Xrotation Yrotation Zrotation
	JOINT mixamorig:Spine
	{
		OFFSET 0.000000 10.181549 0.131524
		CHANNELS 6 Xposition Yposition Zposition Xrotation Yrotation Zrotation
		JOINT mixamorig:Spine1
		{
			OFFSET 0.000000 9.893990 -1.470706
			CHANNELS 3 Xrotation Yrotation Zrotation
			JOINT mixamorig:Spine2
			{
				OFFSET 0.000000 9.220787 -1.370637
				CHANNELS 3 Xrotation Yrotation Zrotation
				JOINT mixamorig:Neck
				{
					OFFSET 0.000000 16.740372 -2.049022
					CHANNELS 6 Xposition Yposition Zposition Xrotation Yrotation Zrotation
					JOINT mixamorig:Head
					{
						OFFSET 0.000000 9.617859 1.684976
						CHANNELS 6 Xposition Yposition Zposition Xrotation Yrotation Zrotation
						JOINT mixamorig:HeadTop_End
						{
							OFFSET 0.000000 22.037384 7.501072
							CHANNELS 6 Xposition Yposition Zposition Xrotation Yrotation Zrotation
							End Site
							{
								OFFSET 0.000000 23.106567 -2.828246
							}
						}
					}
				}
				JOINT mixamorig:RightShoulder
				{
					OFFSET -4.570000 11.014877 -2.160840
					CHANNELS 6 Xposition Yposition Zposition Xrotation Yrotation Zrotation
					JOINT mixamorig:RightArm
					{
						OFFSET -10.592867 -0.524796 -2.232105
						CHANNELS 3 Xrotation Yrotation Zrotation
						JOINT mixamorig:RightForeArm
						{
							OFFSET -27.841497 0.000000 -0.000002
							CHANNELS 3 Xrotation Yrotation Zrotation
							JOINT mixamorig:RightHand
							{
								OFFSET -28.328812 0.000000 -0.000001
								CHANNELS 3 Xrotation Yrotation Zrotation
								JOINT mixamorig:RightHandThumb1
								{
									OFFSET -2.464798 -1.573990 2.681911
									CHANNELS 6 Xposition Yposition Zposition Xrotation Yrotation Zrotation
									JOINT mixamorig:RightHandThumb2
									{
										OFFSET -3.244781 -1.873383 1.873376
										CHANNELS 3 Xrotation Yrotation Zrotation
										JOINT mixamorig:RightHandThumb3
										{
											OFFSET -2.646263 -1.527817 1.527818
											CHANNELS 6 Xposition Yposition Zposition Xrotation Yrotation Zrotation
											JOINT mixamorig:RightHandThumb4
											{
												OFFSET -1.994591 -1.151581 1.151575
												CHANNELS 6 Xposition Yposition Zposition Xrotation Yrotation Zrotation
												End Site
												{
													OFFSET -1.860176 -1.142715 1.365483
												}
											}
										}
									}
								}
								JOINT mixamorig:RightHandIndex1
								{
									OFFSET -9.108299 -0.517883 2.259803
									CHANNELS 6 Xposition Yposition Zposition Xrotation Yrotation Zrotation
									JOINT mixamorig:RightHandIndex2
									{
										OFFSET -3.699997 0.000000 0.000000
										CHANNELS 3 Xrotation Yrotation Zrotation
										JOINT mixamorig:RightHandIndex3
										{
											OFFSET -2.850006 0.000000 0.000000
											CHANNELS 3 Xrotation Yrotation Zrotation
											JOINT mixamorig:RightHandIndex4
											{
												OFFSET -2.772194 0.000000 0.000000
												CHANNELS 3 Xrotation Yrotation Zrotation
												End Site
												{
													OFFSET -2.772202 0.000000 -0.000484
												}
											}
										}
									}
								}
								JOINT mixamorig:RightHandMiddle1
								{
									OFFSET -9.532501 0.000000 -0.000000
									CHANNELS 6 Xposition Yposition Zposition Xrotation Yrotation Zrotation
									JOINT mixamorig:RightHandMiddle2
									{
										OFFSET -3.699997 0.000000 0.000000
										CHANNELS 3 Xrotation Yrotation Zrotation
										JOINT mixamorig:RightHandMiddle3
										{
											OFFSET -2.949997 0.000000 0.000000
											CHANNELS 3 Xrotation Yrotation Zrotation
											JOINT mixamorig:RightHandMiddle4
											{
												OFFSET -2.946594 0.000000 0.000000
												CHANNELS 3 Xrotation Yrotation Zrotation
												End Site
												{
													OFFSET -2.946602 0.000000 -0.000982
												}
											}
										}
									}
								}
								JOINT mixamorig:RightHandRing1
								{
									OFFSET -9.103600 -0.043106 -1.865100
									CHANNELS 6 Xposition Yposition Zposition Xrotation Yrotation Zrotation
									JOINT mixamorig:RightHandRing2
									{
										OFFSET -3.379303 0.000000 0.000000
										CHANNELS 3 Xrotation Yrotation Zrotation
										JOINT mixamorig:RightHandRing3
										{
											OFFSET -2.889694 0.000000 0.000000
											CHANNELS 3 Xrotation Yrotation Zrotation
											JOINT mixamorig:RightHandRing4
											{
												OFFSET -2.638802 0.000000 0.000000
												CHANNELS 3 Xrotation Yrotation Zrotation
												End Site
												{
													OFFSET -2.638802 0.000000 0.004218
												}
											}
										}
									}
								}
								JOINT mixamorig:RightHandPinky1
								{
									OFFSET -8.076698 -0.486725 -3.806299
									CHANNELS 6 Xposition Yposition Zposition Xrotation Yrotation Zrotation
									JOINT mixamorig:RightHandPinky2
									{
										OFFSET -3.600006 0.000000 0.000000
										CHANNELS 3 Xrotation Yrotation Zrotation
										JOINT mixamorig:RightHandPinky3
										{
											OFFSET -2.099998 0.000000 0.000000
											CHANNELS 3 Xrotation Yrotation Zrotation
											JOINT mixamorig:RightHandPinky4
											{
												OFFSET -2.115791 0.000000 0.000000
												CHANNELS 3 Xrotation Yrotation Zrotation
												End Site
												{
													OFFSET -2.115799 0.000000 0.000174
												}
											}
										}
									}
								}
							}
						}
					}
				}
				JOINT mixamorig:LeftShoulder
				{
					OFFSET 4.570400 11.014679 -2.160816
					CHANNELS 6 Xposition Yposition Zposition Xrotation Yrotation Zrotation
					JOINT mixamorig:LeftArm
					{
						OFFSET 10.592373 -0.524597 -2.232116
						CHANNELS 3 Xrotation Yrotation Zrotation
						JOINT mixamorig:LeftForeArm
						{
							OFFSET 27.841488 0.000000 0.000001
							CHANNELS 3 Xrotation Yrotation Zrotation
							JOINT mixamorig:LeftHand
							{
								OFFSET 28.328808 0.000000 -0.000000
								CHANNELS 3 Xrotation Yrotation Zrotation
								JOINT mixamorig:LeftHandThumb1
								{
									OFFSET 2.466103 -1.576202 2.681698
									CHANNELS 6 Xposition Yposition Zposition Xrotation Yrotation Zrotation
									JOINT mixamorig:LeftHandThumb2
									{
										OFFSET 3.243317 -1.872528 1.872530
										CHANNELS 3 Xrotation Yrotation Zrotation
										JOINT mixamorig:LeftHandThumb3
										{
											OFFSET 2.647881 -1.528763 1.528754
											CHANNELS 6 Xposition Yposition Zposition Xrotation Yrotation Zrotation
											JOINT mixamorig:LeftHandThumb4
											{
												OFFSET 1.998924 -1.154083 1.154080
												CHANNELS 6 Xposition Yposition Zposition Xrotation Yrotation Zrotation
												End Site
												{
													OFFSET 1.884041 -1.149155 1.337651
												}
											}
										}
									}
								}
								JOINT mixamorig:LeftHandIndex1
								{
									OFFSET 9.109299 -0.518005 2.259900
									CHANNELS 6 Xposition Yposition Zposition Xrotation Yrotation Zrotation
									JOINT mixamorig:LeftHandIndex2
									{
										OFFSET 3.699997 0.000000 0.000000
										CHANNELS 3 Xrotation Yrotation Zrotation
										JOINT mixamorig:LeftHandIndex3
										{
											OFFSET 2.850006 0.000000 0.000000
											CHANNELS 3 Xrotation Yrotation Zrotation
											JOINT mixamorig:LeftHandIndex4
											{
												OFFSET 2.774895 0.000000 0.000000
												CHANNELS 3 Xrotation Yrotation Zrotation
												End Site
												{
													OFFSET 2.774902 0.000000 -0.000072
												}
											}
										}
									}
								}
								JOINT mixamorig:LeftHandMiddle1
								{
									OFFSET 9.533401 0.000000 0.000000
									CHANNELS 6 Xposition Yposition Zposition Xrotation Yrotation Zrotation
									JOINT mixamorig:LeftHandMiddle2
									{
										OFFSET 3.699997 0.000000 0.000000
										CHANNELS 3 Xrotation Yrotation Zrotation
										JOINT mixamorig:LeftHandMiddle3
										{
											OFFSET 2.949997 0.000000 0.000000
											CHANNELS 3 Xrotation Yrotation Zrotation
											JOINT mixamorig:LeftHandMiddle4
											{
												OFFSET 2.952896 0.000000 0.000000
												CHANNELS 3 Xrotation Yrotation Zrotation
												End Site
												{
													OFFSET 2.952904 0.000000 0.000165
												}
											}
										}
									}
								}
								JOINT mixamorig:LeftHandRing1
								{
									OFFSET 9.104500 -0.042999 -1.865101
									CHANNELS 6 Xposition Yposition Zposition Xrotation Yrotation Zrotation
									JOINT mixamorig:LeftHandRing2
									{
										OFFSET 3.149994 0.000000 0.000000
										CHANNELS 3 Xrotation Yrotation Zrotation
										JOINT mixamorig:LeftHandRing3
										{
											OFFSET 2.950005 0.000000 0.000000
											CHANNELS 3 Xrotation Yrotation Zrotation
											JOINT mixamorig:LeftHandRing4
											{
												OFFSET 2.644302 0.000000 0.000000
												CHANNELS 3 Xrotation Yrotation Zrotation
												End Site
												{
													OFFSET 2.644302 0.000000 0.000083
												}
											}
										}
									}
								}
								JOINT mixamorig:LeftHandPinky1
								{
									OFFSET 8.077805 -0.486893 -3.806302
									CHANNELS 6 Xposition Yposition Zposition Xrotation Yrotation Zrotation
									JOINT mixamorig:LeftHandPinky2
									{
										OFFSET 3.600006 0.000000 0.000000
										CHANNELS 3 Xrotation Yrotation Zrotation
										JOINT mixamorig:LeftHandPinky3
										{
											OFFSET 2.099998 0.000000 0.000000
											CHANNELS 3 Xrotation Yrotation Zrotation
											JOINT mixamorig:LeftHandPinky4
											{
												OFFSET 2.125496 0.000000 0.000000
												CHANNELS 3 Xrotation Yrotation Zrotation
												End Site
												{
													OFFSET 2.125504 0.000000 -0.001254
												}
											}
										}
									}
								}
							}
						}
					}
				}
			}
		}
	}
	JOINT mixamorig:RightUpLeg
	{
		OFFSET -8.207800 -6.751701 -1.599544
		CHANNELS 6 Xposition Yposition Zposition Xrotation Yrotation Zrotation
		JOINT mixamorig:RightLeg
		{
			OFFSET 0.000004 -44.370152 0.345934
			CHANNELS 3 Xrotation Yrotation Zrotation
			JOINT mixamorig:RightFoot
			{
				OFFSET 0.000004 -44.423664 -3.043535
				CHANNELS 3 Xrotation Yrotation Zrotation
				JOINT mixamorig:RightToeBase
				{
					OFFSET 0.000001 -8.728691 10.710592
					CHANNELS 3 Xrotation Yrotation Zrotation
					JOINT mixamorig:RightToe_End
					{
						OFFSET 0.000000 -0.000665 9.278101
						CHANNELS 3 Xrotation Yrotation Zrotation
						End Site
						{
							OFFSET 0.000000 -0.000665 9.278103
						}
					}
				}
			}
		}
	}
	JOINT mixamorig:LeftUpLeg
	{
		OFFSET 8.207800 -6.751701 -1.599544
		CHANNELS 6 Xposition Yposition Zposition Xrotation Yrotation Zrotation
		JOINT mixamorig:LeftLeg
		{
			OFFSET 0.000004 -44.370037 0.346940
			CHANNELS 3 Xrotation Yrotation Zrotation
			JOINT mixamorig:LeftFoot
			{
				OFFSET 0.000004 -44.423611 -3.044388
				CHANNELS 3 Xrotation Yrotation Zrotation
				JOINT mixamorig:LeftToeBase
				{
					OFFSET 0.000001 -8.728690 10.710592
					CHANNELS 3 Xrotation Yrotation Zrotation
					JOINT mixamorig:LeftToe_End
					{
						OFFSET 0.000000 -0.000680 9.278101
						CHANNELS 3 Xrotation Yrotation Zrotation
						End Site
						{
							OFFSET 0.000000 -0.000680 9.278101
						}
					}
				}
			}
		}
	}
}
MOTION
Frames: 4
Frame Time: 0.033333
-7.577377 15.515297 -6.989017 7.129216 0.378544 88.961752 -0.000000 10.181560 0.131524 25.961810 -16.645219 -14.638692 13.199197 -5.335777 5.929806 13.803306 -4.729609 5.447536 -0.000002 16.740364 -2.049021 -12.640771 2.660415 4.734456 0.000002 9.617859 1.684976 5.065615 20.117887 -1.997719 0.000001 22.037384 7.501066 -0.000000 -0.000001 0.000002 -4.570009 11.014872 -2.160841 10.923832 25.752487 -61.919818 -45.881208 -34.505576 -54.481789 70.482389 136.848523 -62.273321 27.249893 9.967733 -18.094892 -2.464808 -1.573982 2.681909 10.329756 15.080416 7.863389 19.058647 -27.763787 -0.353618 -2.646260 -1.527808 1.527820 1.950575 -13.020618 -28.034532 -1.994589 -1.151577 1.151567 0.000004 0.000002 -0.000004 -9.108304 -0.517876 2.259803 4.010226 8.065920 97.488506 4.760010 -4.656034 91.266880 0.070348 -0.807269 9.960529 -0.000000 0.000001 -0.000000 -9.532497 0.000002 -0.000003 1.218544 -6.752350 86.867084 5.837504 -4.505426 104.697060 0.158020 1.204114 -14.952695 0.000001 0.000001 0.000003 -9.103604 -0.043101 -1.865105 4.656401 -6.987253 80.512241 6.423365 -4.309939 112.308944 0.823163 -2.645756 34.559176 -0.000001 0.000002 0.000003 -8.076718 -0.486719 -3.806299 2.573043 -11.786799 58.156185 5.669310 -4.546093 102.565618 0.680655 -2.426118 31.339288 0.000000 0.000001 0.000000 4.570399 11.014688 -2.160817 -0.055015 -35.876354 -16.124719 -92.292672 -32.452742 -50.732907 -0.001671 -68.658892 -0.001988 42.650717 -42.995194 21.905134 2.466105 -1.576200 2.681697 -25.895626 -6.517287 13.590173 2.048486 22.278851 6.414828 2.647887 -1.528753 1.528745 -12.817612 8.251893 3.206557 1.998932 -1.154081 1.154083 -0.000001 -0.000001 -0.000000 9.109305 -0.518016 2.259896 6.612744 -12.682166 4.806700 0.310328 1.883268 -18.714858 0.198079 -1.511927 14.925346 0.000000 -0.000000 -0.000000 9.533405 0.000006 0.000001 0.074576 2.008194 3.437840 0.065610 0.875346 -8.574381 0.055745 -0.807028 7.900686 0.000000 -0.000001 0.000000 9.104506 -0.042993 -1.865103 -1.243923 10.982617 8.753641 0.193361 1.494284 -14.747010 0.198077 -1.511922 14.925340 0.000000 0.000000 0.000000 8.077803 -0.486891 -3.806304 -4.659100 22.784760 14.104360 0.247931 1.687957 -16.712037 0.198081 -1.511937 14.925345 -0.000000 -0.000001 0.000000 -8.207800 -6.751712 -1.599541 -51.854858 6.672778 3.485236 104.074912 10.618296 1.770867 27.128803 -2.751583 10.609867 2.631286 0.000005 0.000000 -0.000001 -0.000000 -0.000000 8.207800 -6.751710 -1.599549 -40.769170 7.061956 -3.417215 42.144166 -1.798191 -4.176937 40.656984 12.784988 -13.264652 4.809654 0.017954 -1.349416 0.000003 -0.000002 0.000001 
-7.489014 15.434113 -6.635746 8.186983 0.363141 89.103055 -0.000001 10.181543 0.131529 25.842005 -16.849566 -15.258581 13.116800 -5.393936 5.757998 13.717463 -4.789236 5.287815 0.000002 16.740364 -2.049015 -13.044989 2.894528 5.233084 0.000000 9.617853 1.684976 4.106895 22.421541 -1.501667 0.000000 22.037384 7.501073 -0.000002 -0.000001 0.000001 -4.569997 11.014874 -2.160833 9.736006 25.178121 -59.918593 -46.465548 -31.773395 -54.508366 70.233565 136.584194 -62.124484 26.673255 9.746533 -18.184171 -2.464794 -1.573984 2.681905 10.329756 15.080409 7.863382 19.058654 -27.763802 -0.353622 -2.646260 -1.527812 1.527822 1.950564 -13.020605 -28.034539 -1.994584 -1.151577 1.151568 -0.000000 -0.000001 0.000003 -9.108307 -0.517881 2.259802 4.010237 8.065918 97.488519 4.760028 -4.656040 91.266880 0.070352 -0.807258 9.960520 0.000001 0.000001 0.000000 -9.532500 0.000009 -0.000001 1.218542 -6.752343 86.867097 5.837502 -4.505419 104.697053 0.158025 1.204121 -14.952695 0.000002 -0.000002 -0.000001 -9.103608 -0.043096 -1.865104 4.656400 -6.987242 80.512248 6.423363 -4.309942 112.308923 0.823165 -2.645766 34.559183 -0.000001 0.000001 0.000003 -8.076691 -0.486719 -3.806300 2.573045 -11.786805 58.156185 5.669302 -4.546101 102.565570 0.680659 -2.426117 31.339292 -0.000001 0.000000 0.000000 4.570404 11.014693 -2.160814 -0.221707 -36.330049 -16.511388 -91.038601 -32.189056 -48.664951 -0.001015 -71.217133 -0.000048 41.647222 -41.651187 20.272678 2.466109 -1.576190 2.681708 -25.895616 -6.517299 13.590169 2.048477 22.278916 6.414863 2.647879 -1.528768 1.528753 -12.817626 8.251897 3.206559 1.998921 -1.154066 1.154085 0.000001 0.000003 -0.000002 9.109307 -0.518009 2.259895 6.612737 -12.682125 4.806687 0.310335 1.883281 -18.714846 0.198082 -1.511934 14.925346 -0.000000 -0.000000 -0.000000 9.533406 0.000001 -0.000003 0.074576 2.008209 3.437858 0.065616 0.875333 -8.574375 0.055734 -0.807027 7.900668 0.000000 -0.000002 -0.000000 9.104506 -0.043007 -1.865101 -1.243920 10.982597 8.753655 0.193361 1.494286 -14.747029 0.198078 -1.511938 14.925346 0.000001 -0.000001 0.000000 8.077809 -0.486900 -3.806301 -4.659085 22.784700 14.104376 0.247928 1.687971 -16.712047 0.198080 -1.511939 14.925346 -0.000000 0.000006 0.000001 -8.207802 -6.751709 -1.599542 -51.816530 7.313752 4.140171 103.976325 10.815591 1.772696 26.880293 -2.403721 10.629437 2.736346 0.000031 0.000028 -0.000000 -0.000000 0.000000 8.207799 -6.751698 -1.599544 -40.315188 7.693655 -2.949344 41.737674 -1.943378 -4.374793 41.786489 12.988400 -12.751644 4.556834 0.033226 -1.846487 -0.000002 0.000000 -0.000000 
-7.399902 15.330643 -6.342412 9.197279 0.527424 89.201021 0.000002 10.181548 0.131528 25.836483 -17.400026 -15.829933 12.992695 -5.558279 5.575993 13.591104 -4.954722 5.122547 0.000000 16.740366 -2.049021 -13.646168 3.173893 5.746747 0.000002 9.617859 1.684970 3.075195 25.106035 -0.992803 -0.000001 22.037384 7.501069 0.000003 -0.000000 0.000000 -4.569996 11.014882 -2.160843 8.000161 24.124327 -57.351084 -47.323027 -28.036323 -54.084228 70.044690 136.262506 -62.084275 26.083702 9.465473 -18.292034 -2.464794 -1.573996 2.681911 10.329754 15.080411 7.863382 19.058644 -27.763787 -0.353635 -2.646260 -1.527812 1.527819 1.950573 -13.020622 -28.034527 -1.994571 -1.151586 1.151583 0.000002 0.000000 -0.000002 -9.108289 -0.517883 2.259809 4.010240 8.065903 97.488478 4.760044 -4.656035 91.266886 0.070353 -0.807278 9.960521 0.000001 0.000000 0.000000 -9.532503 0.000009 0.000007 1.218538 -6.752334 86.867090 5.837502 -4.505423 104.697060 0.158021 1.204124 -14.952671 -0.000002 0.000000 0.000001 -9.103600 -0.043111 -1.865095 4.656399 -6.987258 80.512235 6.423363 -4.309945 112.308937 0.823152 -2.645760 34.559190 -0.000001 -0.000003 0.000002 -8.076694 -0.486713 -3.806294 2.573036 -11.786804 58.156172 5.669303 -4.546089 102.565570 0.680644 -2.426117 31.339268 0.000001 0.000005 -0.000000 4.570402 11.014669 -2.160817 -0.333616 -36.754781 -16.817285 -89.833640 -31.922224 -46.069831 0.006749 -74.442068 0.007755 40.347136 -39.825505 18.181537 2.466097 -1.576214 2.681707 -25.895612 -6.517282 13.590184 2.048468 22.278923 6.414865 2.647891 -1.528776 1.528741 -12.817632 8.251896 3.206558 1.998921 -1.154063 1.154084 0.000005 0.000001 -0.000002 9.109306 -0.517998 2.259899 6.612733 -12.682099 4.806702 0.310338 1.883261 -18.714857 0.198075 -1.511928 14.925358 0.000000 -0.000001 -0.000001 9.533389 -0.000003 0.000000 0.074573 2.008207 3.437855 0.065607 0.875348 -8.574369 0.055742 -0.807034 7.900668 0.000000 -0.000000 -0.000000 9.104492 -0.042991 -1.865103 -1.243925 10.982602 8.753656 0.193358 1.494290 -14.747022 0.198086 -1.511934 14.925340 0.000001 0.000001 0.000001 8.077797 -0.486901 -3.806299 -4.659079 22.784685 14.104371 0.247925 1.687959 -16.712052 0.198078 -1.511916 14.925355 0.000000 0.000003 0.000000 -8.207799 -6.751704 -1.599547 -52.089041 7.844645 4.842486 103.950275 10.880897 1.766483 26.485136 -1.542651 10.649824 2.873380 0.000007 -0.000001 -0.000000 -0.000000 0.000000 8.207798 -6.751694 -1.599545 -40.265406 8.367864 -2.402107 41.573073 -2.040611 -4.568220 42.749884 13.276785 -12.033630 4.648395 0.027604 -1.681413 0.000003 -0.000000 0.000000 
-7.321602 15.258934 -6.086071 10.164231 0.830261 89.204675 0.000003 10.181559 0.131532 25.982318 -18.241774 -16.189449 12.850572 -5.819282 5.413311 13.446819 -5.218532 4.981036 -0.000002 16.740383 -2.049012 -14.427272 3.474615 6.262053 0.000002 9.617850 1.684979 1.957713 27.998040 -0.521499 -0.000001 22.037384 7.501069 -0.000006 0.000000 0.000000 -4.569998 11.014872 -2.160832 5.900964 22.485405 -54.516343 -48.528818 -23.451941 -53.203677 69.685435 135.588257 -61.980681 25.158032 9.112590 -18.416975 -2.464806 -1.573986 2.681920 10.329761 15.080393 7.863391 19.058637 -27.763783 -0.353633 -2.646256 -1.527808 1.527815 1.950577 -13.020613 -28.034535 -1.994583 -1.151582 1.151570 0.000004 0.000002 -0.000000 -9.108290 -0.517885 2.259806 4.010238 8.065917 97.488526 4.760022 -4.656023 91.266880 0.070348 -0.807256 9.960536 -0.000000 0.000006 0.000000 -9.532495 0.000007 0.000006 1.218546 -6.752360 86.867097 5.837510 -4.505428 104.697053 0.158021 1.204115 -14.952700 -0.000000 -0.000002 -0.000002 -9.103616 -0.043117 -1.865098 4.656400 -6.987253 80.512241 6.423360 -4.309953 112.308923 0.823160 -2.645769 34.559162 -0.000002 -0.000003 -0.000001 -8.076688 -0.486719 -3.806302 2.573042 -11.786818 58.156192 5.669295 -4.546087 102.565556 0.680649 -2.426115 31.339285 0.000001 0.000003 -0.000000 4.570399 11.014681 -2.160811 -0.280035 -37.159887 -16.827086 -88.896544 -31.347457 -43.062126 0.007659 -78.341068 0.007891 38.850048 -37.562711 15.782067 2.466105 -1.576210 2.681693 -25.895627 -6.517287 13.590174 2.048527 22.278757 6.414765 2.647879 -1.528753 1.528756 -12.817618 8.251888 3.206550 1.998922 -1.154080 1.154082 -0.000001 0.000003 -0.000002 9.109310 -0.518028 2.259900 6.612748 -12.682226 4.806698 0.310334 1.883275 -18.714853 0.198080 -1.511929 14.925346 0.000000 -0.000001 -0.000001 9.533402 -0.000001 -0.000002 0.074577 2.008210 3.437857 0.065606 0.875347 -8.574378 0.055746 -0.807031 7.900668 -0.000000 0.000000 -0.000000 9.104501 -0.042989 -1.865106 -1.243938 10.982681 8.753674 0.193357 1.494275 -14.747038 0.198077 -1.511913 14.925357 0.000000 -0.000000 0.000000 8.077811 -0.486904 -3.806311 -4.659135 22.784884 14.104401 0.247926 1.687961 -16.712032 0.198075 -1.511934 14.925350 0.000001 0.000003 0.000001 -8.207798 -6.751704 -1.599545 -52.573947 8.264276 5.561106 103.971469 10.939269 1.767046 25.979862 -0.378018 10.641892 2.981052 0.000003 -0.000000 -0.000000 -0.000001 -0.000001 8.207800 -6.751700 -1.599553 -40.569766 8.990914 -1.822006 41.669058 -2.245617 -4.738089 43.190271 13.617085 -11.202058 4.710401 0.022221 -1.503638 -0.000004 -0.000001 -0.000000 
